<svg width="73" height="18" viewBox="0 0 73 18" fill="none" xmlns="http://www.w3.org/2000/svg">
<g id="BRASS" clip-path="url(#clip0_614_36100)">
<path id="Vector" d="M20.111 15.8527V17.4283H17.4229V0H20.111V6.57245C20.8502 5.53856 22.3018 4.82517 23.9023 4.82517C27.6439 4.82517 29.7861 7.48331 29.7861 11.225C29.7861 14.9666 27.6439 17.6258 23.8537 17.6258C22.2036 17.6258 20.7024 16.8866 20.111 15.8527ZM27.1021 11.225C27.1021 8.76327 25.6743 7.16384 23.5083 7.16384C21.3423 7.16384 19.9145 8.76327 19.9145 11.225C19.9145 13.6618 21.3423 15.2871 23.5083 15.2871C25.6743 15.2871 27.1021 13.6618 27.1021 11.225ZM37.7419 7.34063C35.9202 7.34063 34.3249 8.96074 34.3249 12.8006V17.4283H31.6368V5.02161H34.3249V7.38509C34.9897 5.90766 36.614 4.82517 38.1162 4.82517C38.5849 4.8185 39.0513 4.89336 39.4944 5.04643L39.3465 7.63116C38.8363 7.42854 38.2908 7.32977 37.7419 7.34063ZM50.6852 9.69894V17.4283H48.0509V15.5332C47.3375 16.7883 45.8104 17.6258 44.1614 17.6258C41.6997 17.6258 40.001 16.0749 40.001 13.9575C40.001 11.5207 41.8971 10.2159 45.7122 9.82197L48.0509 9.57591V9.40842C48.0509 7.88239 46.9922 6.94672 45.3679 6.94672C43.8657 6.94672 42.808 7.83276 42.6353 9.3102L40.2233 8.86666C40.6172 6.42977 42.7336 4.83448 45.3679 4.83448C48.5182 4.82517 50.6852 6.59726 50.6852 9.69894ZM48.0509 12.0872V11.5703L45.6874 11.8412C43.6692 12.0634 42.6353 12.8016 42.6353 13.8852C42.6353 14.8694 43.448 15.559 44.7031 15.559C46.7957 15.558 48.026 14.1054 48.0509 12.0872ZM52.1079 13.9824L54.3235 13.0467C54.7422 14.3763 55.7027 15.4836 57.4252 15.4836C58.7051 15.4836 59.5674 14.7454 59.5674 13.8593C59.5674 11.1712 52.6496 12.9236 52.6496 8.22151C52.6496 6.27676 54.3483 4.82517 57.0312 4.82517C59.3699 4.82517 61.3395 6.0555 61.8812 7.87722L59.6656 8.80772C59.3451 7.57636 58.1882 6.88779 57.0561 6.88779C55.8743 6.88779 55.1361 7.35511 55.1361 8.16775C55.1361 10.555 62.1025 8.73328 62.1025 13.8293C62.1025 15.9705 60.2322 17.6206 57.4252 17.6206C54.3948 17.6258 52.6713 15.7544 52.1079 13.9824ZM63.0051 13.9824L65.2207 13.0467C65.6343 14.3763 66.5989 15.4836 68.3224 15.4836C69.6023 15.4836 70.4636 14.7454 70.4636 13.8593C70.4636 11.1712 63.5468 12.9236 63.5468 8.22151C63.5468 6.27676 65.2455 4.82517 67.9285 4.82517C70.2671 4.82517 72.2367 6.0555 72.7774 7.87722L70.5628 8.80772C70.2423 7.57636 69.0854 6.88779 67.9533 6.88779C66.7715 6.88779 66.0333 7.35511 66.0333 8.16775C66.0333 10.555 72.9997 8.73328 72.9997 13.8293C72.9997 15.9705 71.1284 17.6206 68.3224 17.6206C65.2941 17.6258 63.5716 15.7544 63.0051 13.9824Z" fill="black"/>
<path id="Vector_2" d="M8.9442 5.02148H0V8.48399H8.16051L6.42977 10.2147H0V12.8119H3.83264L0 16.6445L0.78369 17.4282L4.61633 13.5955V17.4282H7.21346V10.9994L8.9442 9.26768V17.4282H12.4067V5.02148H8.9442Z" fill="#0BCE5A"/>
</g>
<defs>
<clipPath id="clip0_614_36100">
<rect width="73" height="17.6258" fill="white"/>
</clipPath>
</defs>
</svg>
