<svg width="118" height="34" viewBox="0 0 118 34" fill="none" xmlns="http://www.w3.org/2000/svg">
<g id="EDEN">
<g id="Clip path group">
<mask id="mask0_614_36106" style="mask-type:luminance" maskUnits="userSpaceOnUse" x="0" y="0" width="55" height="34">
<g id="eden-green_svg__a">
<path id="Vector" d="M0 0H54.7339V33.2558H0V0Z" fill="white"/>
</g>
</mask>
<g mask="url(#mask0_614_36106)">
<g id="Group">
<g id="Group_2">
<path id="Vector_2" fill-rule="evenodd" clip-rule="evenodd" d="M29.1888 13.8033C28.6837 13.8053 28.1833 13.707 27.7166 13.514C27.5869 13.4617 27.4607 13.401 27.3388 13.3324C26.9526 13.9462 26.5943 14.6944 26.4647 15.1678C26.3352 15.6412 26.4647 33.1118 26.4647 33.1118H24.2515V31.0778C23.2176 32.5306 21.5807 33.2571 19.7041 33.2571C15.9751 33.2571 13.2558 30.6177 13.2558 26.695C13.2558 22.7723 15.9739 20.1571 19.7041 20.1571C21.5093 20.1571 23.0965 20.8351 24.1547 22.2154V15.9245L24.151 15.64C24.0624 14.8136 23.7492 14.0273 23.2454 13.3663C23.0259 13.6254 22.7613 13.8428 22.4645 14.0079C21.9565 14.2948 21.3819 14.4426 20.7986 14.4365C20.7344 14.4365 20.669 14.4353 20.6049 14.4317L20.3736 14.4208L20.3179 14.4184C19.7295 14.4255 19.1439 14.3363 18.5842 14.1544C17.9788 13.9268 17.3868 13.4873 16.7197 12.7706L15.1663 11.21C14.3947 10.4807 13.5587 9.82263 12.6686 9.24379C11.9632 8.78492 11.2251 8.37825 10.4603 8.02702C9.76056 7.69542 9.03137 7.42993 8.28223 7.23401L8.28465 7.23159C9.026 6.61814 9.82426 6.07691 10.6685 5.61528C11.4834 5.16113 12.3411 4.78844 13.2292 4.50264C14.2301 4.177 15.2749 4.00633 16.3274 3.99656C17.6509 3.99059 18.9559 4.30769 20.129 4.92034C21.1758 5.43685 22.1198 6.13962 22.9149 6.99429C23.4682 7.60197 23.8713 8.33097 24.0917 9.12272C24.3004 9.92304 24.2996 10.7636 24.0893 11.5635C24.0533 11.7089 24.0113 11.8527 23.9634 11.9945C24.465 12.6381 24.9171 13.3189 25.3157 14.0309C25.5729 13.4246 25.8553 12.8292 26.162 12.2464C25.916 11.9274 25.7004 11.5861 25.5179 11.2269C25.0574 10.3492 24.8306 9.36771 24.8593 8.37692C24.9041 7.39238 25.1791 6.43204 25.662 5.57291C26.3602 4.3592 27.2739 3.28303 28.3583 2.39721C30.2215 0.806334 32.5243 0 35.2036 0C36.1835 0.00470811 37.1607 0.104044 38.1214 0.296625C38.9434 0.45936 39.7536 0.676968 40.5465 0.947988C41.3264 1.20733 42.086 1.52419 42.819 1.89598C41.9967 2.32714 41.2164 2.83421 40.4884 3.41058C39.6896 4.02802 38.9369 4.70297 38.2365 5.43005C37.352 6.34686 36.5521 7.34167 35.8465 8.40234C35.3578 9.13488 34.8931 9.88309 34.453 10.6458C33.867 11.6628 33.2943 12.3359 32.6478 12.767C31.9577 13.227 31.1477 13.4123 30.362 13.6363C29.9802 13.7466 29.585 13.8032 29.1876 13.8045L29.1888 13.8033ZM23.0917 10.9666C23.1787 10.4627 23.1526 9.94582 23.0154 9.45324C22.8357 8.8104 22.5091 8.21811 22.0613 7.72313C21.4088 7.01566 20.6314 6.43449 19.7683 6.00877C18.7137 5.46252 17.5417 5.18199 16.354 5.19153C15.6349 5.19514 14.9185 5.28249 14.2196 5.45184C13.622 5.59493 13.0369 5.78604 12.4701 6.02329C11.9081 6.2524 11.3673 6.53031 10.8538 6.85384L10.8574 6.85505C11.3974 7.0863 11.9216 7.35266 12.4277 7.65049C13.674 8.37471 14.8333 9.23913 15.8831 10.2269C16.2807 10.6016 16.6659 10.9892 17.0381 11.3892C18.3178 12.7633 19.376 13.1423 20.0395 13.2161C20.1569 13.2295 20.2743 13.2355 20.3918 13.2367C20.9233 13.2397 21.4451 13.0938 21.8979 12.8154C22.0795 12.7076 22.2466 12.5769 22.3955 12.4292L22.3834 12.4159L20.6642 10.7196C20.0407 10.2208 19.6351 10.0731 19.1629 9.9C18.7633 9.76145 18.3757 9.59016 18.0042 9.38786L18.9571 8.06092C18.9571 8.06092 20.801 8.70744 22.565 10.4254C22.7448 10.6025 22.9204 10.7838 23.0917 10.9691V10.9666ZM29.4988 12.2681C29.0476 12.2715 28.6006 12.1825 28.1851 12.0066L28.5266 11.4558C30.0218 9.01375 31.8403 7.18921 31.8403 7.18921L30.6078 6.13589C30.6078 6.13589 28.6052 8.22195 27.2311 10.4218L26.8981 10.9509C26.4091 10.2188 26.1669 9.34962 26.2068 8.47014C26.2438 7.67063 26.466 6.89063 26.8558 6.19158C27.4271 5.1885 28.1786 4.29947 29.0726 3.56918C29.9865 2.78975 31.0522 2.20846 32.2023 1.86208C33.2187 1.56042 34.2742 1.41069 35.3344 1.41774C36.3814 1.42269 37.4247 1.54452 38.4447 1.78096C38.8733 1.8766 39.2958 1.99889 39.7099 2.14538C39.1393 2.56089 38.5969 3.01389 38.0863 3.50138C36.8255 4.68417 35.7039 6.00718 34.7436 7.44467C34.3794 7.98962 34.0334 8.54644 33.706 9.11424C33.0861 10.1918 32.0582 11.5768 30.6913 12.0587C30.3075 12.1955 29.9043 12.2669 29.4963 12.2681H29.4988ZM15.5901 26.695C15.5901 29.4312 17.4437 31.2231 19.8966 31.2231C22.3253 31.2231 24.1777 29.4312 24.1777 26.695C24.1777 23.9588 22.3265 22.1911 19.8966 22.1911C17.4425 22.1911 15.5901 23.9588 15.5901 26.695Z" fill="#05A84E"/>
<path id="Vector_3" fill-rule="evenodd" clip-rule="evenodd" d="M2.54976 28.4395C3.19991 30.2071 4.78716 31.2241 6.92891 31.2241C8.4205 31.2241 9.67117 30.7156 10.6095 29.6744L11.8601 31.1757C10.7293 32.5317 8.97259 33.2581 6.85626 33.2581C2.74226 33.2581 0 30.5207 0 26.696C0 22.8956 2.69505 20.1582 6.39983 20.1582C9.88789 20.1582 12.6071 22.6293 12.6786 26.4539L2.54976 28.4395ZM10.3928 25.2674C9.98353 23.4271 8.46772 22.1196 6.39861 22.1196C3.96872 22.1196 2.23619 23.8872 2.23619 26.575V26.8171L10.3928 25.2674ZM30.746 28.4395C31.3962 30.2071 32.9834 31.2241 35.1252 31.2241C36.6168 31.2241 37.8675 30.7156 38.8058 29.6744L40.0564 31.1757C38.9256 32.5317 37.1689 33.2581 35.0525 33.2581C30.9385 33.2581 28.1963 30.5207 28.1963 26.696C28.1963 22.8944 30.8913 20.1582 34.5961 20.1582C38.0842 20.1582 40.8034 22.6293 40.8749 26.4539L30.746 28.4395ZM38.589 25.2674C38.1798 23.4271 36.664 22.1196 34.5949 22.1196C32.165 22.1196 30.4325 23.8872 30.4325 26.575V26.8171L38.589 25.2674Z" fill="#05A84E"/>
</g>
<path id="Vector_4" d="M44.8443 22.2164C45.7826 20.9088 47.4183 20.1582 49.4389 20.1582C52.542 20.1582 54.7322 21.9501 54.7322 25.7275V33.1128H52.4221V25.9938C52.4221 23.4756 51.1715 22.2406 48.9813 22.2406C46.5272 22.2406 44.9399 23.7177 44.9399 26.5023V33.1128H42.6299V20.2793H44.8431V22.2176L44.8443 22.2164Z" fill="#05A84E"/>
</g>
</g>
</g>
</g>
</svg>
