<svg width="145" height="47" viewBox="0 0 145 47" fill="none" xmlns="http://www.w3.org/2000/svg">
<g id="Asset 1 1" clip-path="url(#clip0_342_9961)">
<g id="Layer 2">
<g id="Layer 1">
<path id="Vector" d="M40.4959 11.6896L20.2506 23.3791V46.7583L0 35.0687V11.6896L20.2506 0L40.4959 11.6896ZM30.5831 40.8072L40.4959 35.0687V23.6607L30.5831 29.3886V40.8072Z" fill="url(#paint0_linear_342_9961)"/>
<path id="Vector_2" d="M63.2166 20.3929C62.0047 20.3789 60.8249 20.7823 59.8752 21.5353V20.7224H57.9043V30.9773H59.8645V23.9104C60.2189 23.4194 60.6818 23.0168 61.2171 22.7339C61.7524 22.451 62.3458 22.2954 62.951 22.2792C64.6456 22.2792 65.655 23.3419 65.655 25.191V30.9773H67.6205V25.1325C67.6259 22.2845 65.8728 20.3929 63.2166 20.3929Z" fill="#020214"/>
<path id="Vector_3" d="M74.5856 20.4565C73.5127 20.4586 72.4647 20.7792 71.5742 21.3777C70.6838 21.9762 69.991 22.8255 69.5836 23.8182C69.1762 24.8109 69.0726 25.9022 69.2859 26.9538C69.4992 28.0054 70.0198 28.97 70.7818 29.7254C71.5437 30.4808 72.5127 30.993 73.566 31.197C74.6192 31.4011 75.7093 31.2878 76.6981 30.8716C77.6869 30.4554 78.53 29.7549 79.1204 28.859C79.7109 27.9631 80.0221 26.912 80.0148 25.839C80.0176 25.1273 79.8788 24.4222 79.6064 23.7647C79.334 23.1073 78.9334 22.5106 78.4281 22.0096C77.9227 21.5086 77.3227 21.1132 76.663 20.8466C76.0032 20.5799 75.297 20.4473 74.5856 20.4565ZM74.5856 29.4522C74.1194 29.4474 73.6589 29.3497 73.2311 29.1645C72.8032 28.9794 72.4167 28.7107 72.094 28.3742C71.7714 28.0376 71.5192 27.64 71.3523 27.2047C71.1854 26.7693 71.107 26.305 71.1219 25.839C71.0845 25.3627 71.1461 24.8838 71.3026 24.4324C71.4592 23.981 71.7074 23.5668 72.0317 23.216C72.356 22.8652 72.7494 22.5853 73.187 22.3938C73.6247 22.2023 74.0972 22.1035 74.5749 22.1035C75.0526 22.1035 75.5252 22.2023 75.9628 22.3938C76.4005 22.5853 76.7938 22.8652 77.1181 23.216C77.4424 23.5668 77.6907 23.981 77.8472 24.4324C78.0038 24.8838 78.0653 25.3627 78.028 25.839C78.0428 26.3033 77.9652 26.7658 77.7996 27.1998C77.6339 27.6337 77.3837 28.0304 77.0633 28.3667C76.7429 28.7029 76.3589 28.9721 75.9335 29.1584C75.5081 29.3448 75.0499 29.4446 74.5856 29.4522Z" fill="#020214"/>
<path id="Vector_4" d="M83.7376 21.9387V20.722H81.7773V30.9769H83.7376V24.4414C84.1075 23.8253 84.6274 23.313 85.249 22.9525C85.8705 22.5919 86.5732 22.3949 87.2915 22.3797H87.5518V20.4563H87.2862C86.6252 20.4499 85.9697 20.578 85.3596 20.8329C84.7496 21.0877 84.1977 21.464 83.7376 21.9387Z" fill="#020214"/>
<path id="Vector_5" d="M93.2474 20.4567C92.5408 20.4456 91.8394 20.5778 91.1853 20.8453C90.5313 21.1128 89.9381 21.51 89.4417 22.013C88.9453 22.5159 88.5559 23.1143 88.2969 23.7719C88.038 24.4295 87.9149 25.1327 87.9351 25.8392C87.9135 26.5473 88.0354 27.2524 88.2935 27.9121C88.5517 28.5718 88.9406 29.1725 89.4369 29.6779C89.9333 30.1832 90.5267 30.5829 91.1816 30.8528C91.8365 31.1227 92.5392 31.2572 93.2474 31.2483C95.4839 31.2483 97.3166 30.1006 97.9222 28.3312L98.0444 27.9752H95.946L95.8717 28.1293C95.4732 28.9688 94.5064 29.4736 93.2899 29.4736C92.4863 29.5012 91.7009 29.2304 91.0849 28.7134C90.469 28.1964 90.0661 27.4698 89.9537 26.6734H97.9222L98.2091 26.8169L98.2516 26.4396C98.2627 26.2255 98.2627 26.0109 98.2516 25.7967C98.2303 22.7043 96.1532 20.4567 93.2474 20.4567ZM93.2049 22.2314C94.8464 22.2314 95.9832 23.2941 96.2382 25.0263H89.9537C90.0645 24.2452 90.4554 23.5311 91.0535 23.0169C91.6516 22.5027 92.4162 22.2236 93.2049 22.2314Z" fill="#020214"/>
<path id="Vector_6" d="M105.338 20.4568C104.167 20.4428 103.024 20.8164 102.087 21.5195V15.4834H100.121V30.9774H102.087V30.1857C102.77 30.685 103.562 31.0159 104.398 31.1517C105.233 31.2874 106.089 31.224 106.895 30.9667C107.702 30.7094 108.436 30.2655 109.039 29.6709C109.642 29.0764 110.096 28.348 110.364 27.545C110.632 26.742 110.708 25.887 110.583 25.0495C110.459 24.2119 110.139 23.4155 109.65 22.7249C109.16 22.0343 108.514 21.469 107.765 21.0749C107.016 20.6807 106.184 20.469 105.338 20.4568ZM102.087 23.8786C102.421 23.3668 102.88 22.9476 103.419 22.6597C103.958 22.3719 104.562 22.2246 105.173 22.2315C106.104 22.2672 106.984 22.6622 107.63 23.3333C108.276 24.0045 108.637 24.8998 108.637 25.8313C108.637 26.7628 108.276 27.6581 107.63 28.3293C106.984 29.0005 106.104 29.3954 105.173 29.4312C104.564 29.4409 103.961 29.297 103.422 29.0129C102.883 28.7288 102.423 28.3135 102.087 27.8053V23.8786Z" fill="#020214"/>
<path id="Vector_7" d="M120.452 21.4982C119.648 20.9086 118.696 20.5534 117.702 20.4721C116.708 20.3908 115.711 20.5865 114.821 21.0375C113.932 21.4885 113.184 22.1772 112.663 23.0271C112.141 23.8771 111.864 24.8551 111.864 25.8526C111.864 26.85 112.141 27.828 112.663 28.678C113.184 29.5279 113.932 30.2166 114.821 30.6676C115.711 31.1187 116.708 31.3144 117.702 31.233C118.696 31.1517 119.648 30.7965 120.452 30.2069V30.9774H122.418V20.7224H120.452V21.4982ZM120.452 27.8743C120.113 28.3721 119.657 28.7783 119.123 29.0565C118.589 29.3346 117.994 29.4761 117.392 29.4683C116.461 29.4326 115.581 29.0377 114.935 28.3665C114.289 27.6953 113.929 26.8 113.929 25.8685C113.929 24.937 114.289 24.0417 114.935 23.3705C115.581 22.6993 116.461 22.3044 117.392 22.2686C117.994 22.2613 118.588 22.4031 119.122 22.6812C119.656 22.9593 120.113 23.3652 120.452 23.8627V27.8743Z" fill="#020214"/>
<path id="Vector_8" d="M130.285 25.0527L128.341 24.7126C126.652 24.4576 126.652 23.7084 126.652 23.4587C126.652 22.651 127.544 22.1037 128.872 22.1037C129.754 22.1037 131.268 22.3269 131.491 23.8147L131.528 24.0431H133.372V23.7562C133.18 21.2908 130.843 20.4141 128.893 20.4141C126.402 20.4141 124.729 21.6787 124.729 23.5649C124.729 24.6276 125.26 26.041 127.836 26.4395L130.051 26.8221C130.492 26.8858 131.512 27.1409 131.512 28.0973C131.512 29.0537 130.572 29.5585 129.122 29.5585C127.438 29.5585 126.466 28.9103 126.158 27.6403L126.115 27.4278H124.245L124.288 27.7307C124.617 30.0261 126.317 31.2907 129.069 31.2907C131.725 31.2907 133.425 30.0048 133.425 28.0123C133.414 26.3864 132.357 25.3928 130.285 25.0527Z" fill="#020214"/>
<path id="Vector_9" d="M139.991 20.4567C139.284 20.4456 138.583 20.5778 137.928 20.8453C137.274 21.1128 136.681 21.51 136.185 22.013C135.688 22.5159 135.299 23.1143 135.04 23.7719C134.781 24.4295 134.658 25.1327 134.678 25.8392C134.657 26.5473 134.779 27.2524 135.037 27.9121C135.295 28.5718 135.684 29.1725 136.18 29.6779C136.676 30.1832 137.27 30.5829 137.925 30.8528C138.58 31.1227 139.282 31.2572 139.991 31.2483C142.227 31.2483 144.06 30.1006 144.665 28.3312L144.788 27.9752H142.689L142.615 28.1293C142.216 28.9688 141.25 29.4736 140.033 29.4736C139.229 29.5012 138.444 29.2304 137.828 28.7134C137.212 28.1964 136.809 27.4698 136.697 26.6734H144.665L144.952 26.8169L144.995 26.4396C145.017 26.2261 145.026 26.0114 145.021 25.7967C144.974 22.7043 142.87 20.4567 139.991 20.4567ZM139.948 22.2314C141.59 22.2314 142.726 23.2941 142.981 25.0263H136.697C136.808 24.2452 137.199 23.5311 137.797 23.0169C138.395 22.5027 139.159 22.2236 139.948 22.2314Z" fill="#020214"/>
</g>
</g>
</g>
<defs>
<linearGradient id="paint0_linear_342_9961" x1="10.1253" y1="40.9241" x2="30.3769" y2="5.84844" gradientUnits="userSpaceOnUse">
<stop stop-color="#FF8E00"/>
<stop offset="1" stop-color="#F06900"/>
</linearGradient>
<clipPath id="clip0_342_9961">
<rect width="145" height="46.7742" fill="white"/>
</clipPath>
</defs>
</svg>
