<svg width="118" height="20" viewBox="0 0 118 20" fill="none" xmlns="http://www.w3.org/2000/svg">
<g id="NESTCOIN" clip-path="url(#clip0_614_36124)">
<path id="Vector" d="M21.5864 13.0115C21.6394 14.3215 22.0395 15.3746 22.7876 16.1708C23.5365 16.9677 24.5803 17.3662 25.9207 17.3662C26.5303 17.3662 27.0613 17.2954 27.5137 17.1531C27.966 17.0115 28.3495 16.8169 28.6627 16.5692C28.9932 16.3215 29.2542 16.0385 29.4455 15.72C29.6526 15.3876 29.8192 15.0309 29.9417 14.6577L31.8744 15.1885C31.5265 16.3834 30.8129 17.4343 29.8374 18.1885C28.8631 18.95 27.5401 19.3308 25.8685 19.3308C24.9457 19.3308 24.0932 19.1715 23.3103 18.8531C22.5603 18.5281 21.8845 18.0489 21.3255 17.4454C20.7688 16.8438 20.3331 16.1269 20.0199 15.2946C19.7068 14.4631 19.5502 13.5423 19.5502 12.5331V11.8962C19.5502 10.9754 19.7068 10.1169 20.0199 9.32C20.3316 8.55194 20.7935 7.85631 21.3777 7.27538C21.9518 6.69157 22.6355 6.23116 23.3882 5.92154C24.1903 5.58142 25.0517 5.40977 25.9207 5.41692C26.9827 5.41692 27.8964 5.62077 28.6627 6.02769C29.4455 6.41692 30.0817 6.90461 30.5688 7.48846C31.0573 8.04397 31.4304 8.69417 31.6656 9.4C31.9092 10.09 32.0309 10.7277 32.0309 11.3115V13.0115H21.5864ZM25.9207 7.38154C25.3466 7.38154 24.8072 7.47923 24.3019 7.67385C23.8148 7.85077 23.3791 8.10769 22.9964 8.44385C22.6265 8.78596 22.3174 9.19034 22.0826 9.63923C21.852 10.0958 21.7017 10.5899 21.6386 11.0992H29.9939C29.9669 10.5611 29.8244 10.0354 29.5764 9.55923C29.3572 9.10796 29.0457 8.70957 28.6627 8.39077C28.2849 8.06511 27.8513 7.81319 27.3836 7.64769C26.9155 7.47076 26.42 7.38061 25.9207 7.38154ZM37.7071 9.18769C37.7071 9.82461 37.9673 10.3115 38.4899 10.6477C39.0293 10.9846 40.0043 11.2054 41.4142 11.3115C42.9286 11.4354 44.0768 11.8077 44.8604 12.4269C45.6615 13.0285 46.0616 13.9138 46.0616 15.0823V15.2415C46.0616 15.8792 45.9315 16.4538 45.6698 16.9677C45.4222 17.4681 45.0651 17.9042 44.6259 18.2423C44.1902 18.5962 43.6509 18.8615 43.0072 19.0385C42.3802 19.2331 41.6926 19.3308 40.9445 19.3308C39.9347 19.3308 39.0641 19.1985 38.3334 18.9323C37.6193 18.6492 37.0187 18.2862 36.5316 17.8438C36.078 17.4076 35.7139 16.8841 35.4605 16.3038C35.2238 15.7483 35.0825 15.1556 35.043 14.5515L36.9756 14.0731C37.0626 15.0823 37.4446 15.8962 38.1238 16.5162C38.8031 17.1177 39.7085 17.4192 40.8393 17.4192C41.797 17.4192 42.5632 17.2331 43.1373 16.8615C43.7288 16.4715 44.0253 15.9323 44.0253 15.2415C44.0253 14.4985 43.7379 13.9669 43.163 13.6485C42.5889 13.33 41.6578 13.1262 40.3696 13.0377C38.8727 12.9315 37.7237 12.5777 36.9234 11.9762C36.1216 11.3738 35.7222 10.4977 35.7222 9.34692V9.18769C35.7222 8.56769 35.8523 8.02769 36.1133 7.56769C36.3697 7.09536 36.7266 6.68722 37.1579 6.37308C37.6199 6.04997 38.1317 5.80766 38.6722 5.65615C39.2418 5.495 39.8306 5.4145 40.4218 5.41692C41.275 5.41692 42.0231 5.54077 42.6676 5.78846C43.3113 6.01923 43.8514 6.32846 44.2863 6.71769C44.7078 7.07143 45.0468 7.51598 45.2787 8.01923C45.5223 8.51462 45.6789 9.01077 45.7484 9.50615L43.8166 9.98385C43.7296 9.13461 43.39 8.47077 42.7977 7.99231C42.2228 7.51462 41.4664 7.27538 40.5262 7.27538C40.1608 7.27538 39.8038 7.32 39.4559 7.40846C39.143 7.47228 38.8428 7.58903 38.5678 7.75385C38.3152 7.90509 38.1007 8.11423 37.9415 8.36461C37.785 8.59461 37.7071 8.86846 37.7071 9.18769ZM48.9806 5.78846H53.0539V0.371538H55.0901V5.78846H60.1036V7.70077H55.0901V16.2508C55.0901 16.7815 55.3254 17.0469 55.7951 17.0469H59.4773V18.9592H55.0644C54.4729 18.9592 53.985 18.7646 53.6023 18.3746C53.2362 17.9854 53.0539 17.49 53.0539 16.8877V7.7H48.9806V5.78846ZM75.5934 14.2854C75.4604 14.9944 75.2135 15.6764 74.8627 16.3038C74.536 16.9182 74.1024 17.4671 73.5828 17.9238C73.04 18.3781 72.4209 18.7288 71.7553 18.9592C71.0594 19.2069 70.2841 19.3308 69.4317 19.3308C68.5505 19.335 67.6755 19.1822 66.8462 18.8792C66.0646 18.5901 65.3461 18.1482 64.7313 17.5785C64.1224 16.9938 63.6345 16.2862 63.2692 15.4538C62.9212 14.6223 62.7473 13.6662 62.7473 12.5862V12.2677C62.7473 11.2062 62.9212 10.25 63.2692 9.4C63.6345 8.55 64.1224 7.83308 64.7313 7.24923C65.3437 6.66323 66.0619 6.20347 66.8462 5.89538C67.6717 5.57518 68.5482 5.41296 69.4317 5.41692C70.2493 5.41692 71.0073 5.54077 71.7031 5.78846C72.399 6.03615 73.0087 6.39077 73.5306 6.85077C74.0659 7.28798 74.5098 7.82963 74.8362 8.44385C75.1842 9.06385 75.4194 9.73615 75.5412 10.4623L73.5049 10.94C73.452 10.4775 73.3194 10.028 73.1131 9.61231C72.9269 9.17721 72.6509 8.7879 72.3037 8.47077C71.9535 8.12152 71.5357 7.85014 71.0769 7.67385C70.589 7.47923 70.0232 7.38154 69.3795 7.38154C68.7524 7.38154 68.1609 7.50615 67.6034 7.75385C67.0641 7.98385 66.5853 8.32 66.1677 8.76231C65.7394 9.20331 65.402 9.72688 65.1753 10.3023C64.9443 10.9306 64.8292 11.5969 64.8357 12.2677V12.5862C64.8357 13.33 64.9492 14.0023 65.1761 14.6046C65.4189 15.1892 65.7502 15.6838 66.167 16.0915C66.5853 16.4985 67.0732 16.8169 67.6299 17.0469C68.1866 17.26 68.7872 17.3662 69.4317 17.3662C70.0754 17.3662 70.6328 17.2685 71.1026 17.0738C71.5897 16.8615 71.9989 16.5962 72.3295 16.2769C72.6774 15.9408 72.9474 15.56 73.1388 15.1354C73.3483 14.7108 73.4868 14.2677 73.5571 13.8077L75.5934 14.2854ZM89.8994 12.5331C89.8994 13.6308 89.7163 14.6046 89.351 15.4538C89.003 16.2862 88.5333 16.9938 87.941 17.5785C87.3386 18.1514 86.6281 18.5939 85.8526 18.8792C85.0682 19.1803 84.2364 19.3333 83.398 19.3308C82.5509 19.335 81.7101 19.182 80.917 18.8792C80.1513 18.5892 79.4501 18.147 78.8543 17.5785C78.2627 16.9938 77.7839 16.2862 77.4186 15.4538C77.0706 14.6046 76.8959 13.6308 76.8959 12.5331V12.2146C76.8959 11.1346 77.0706 10.1785 77.4186 9.34692C77.7839 8.49692 78.2627 7.78 78.8543 7.19615C79.4567 6.61641 80.167 6.165 80.9435 5.86846C81.7278 5.56724 82.5596 5.41421 83.398 5.41692C84.2364 5.41433 85.0682 5.56735 85.8526 5.86846C86.6229 6.16136 87.3253 6.61343 87.9153 7.19615C88.5242 7.78077 89.003 8.49692 89.351 9.34692C89.7163 10.1785 89.8994 11.1346 89.8994 12.2146V12.5331ZM83.398 17.3662C84.0243 17.3662 84.5992 17.26 85.1211 17.0469C85.6529 16.8223 86.133 16.4878 86.5311 16.0646C86.939 15.6278 87.2584 15.1137 87.4713 14.5515C87.6974 13.9492 87.8102 13.2769 87.8102 12.5331V12.2146C87.8102 11.5069 87.6974 10.8608 87.4713 10.2762C87.2629 9.70375 86.9431 9.17997 86.5311 8.73615C86.133 8.31301 85.6529 7.97852 85.1211 7.75385C84.5797 7.5054 83.992 7.37842 83.398 7.38154C82.7883 7.38154 82.2142 7.50615 81.6741 7.75385C81.1425 7.97872 80.6624 8.31319 80.2642 8.73615C79.8524 9.18001 79.5329 9.70379 79.3247 10.2762C79.0986 10.8608 78.9851 11.5069 78.9851 12.2146V12.5331C78.9851 13.2769 79.0986 13.9492 79.3247 14.5515C79.5509 15.1354 79.8641 15.64 80.2642 16.0646C80.6651 16.4892 81.1265 16.8169 81.6484 17.0469C82.207 17.2631 82.8004 17.3714 83.398 17.3662ZM95.8826 1.85846C95.8776 1.61689 95.9214 1.37685 96.0111 1.15314C96.1009 0.929421 96.2348 0.726775 96.4045 0.557692C96.7706 0.186154 97.2055 0 97.71 0C98.2153 0 98.6412 0.186154 98.9899 0.557692C99.3552 0.911538 99.5383 1.34538 99.5383 1.85846C99.5383 2.37231 99.3552 2.81462 98.9899 3.18615C98.6412 3.54 98.2153 3.71692 97.71 3.71692C97.2055 3.71692 96.7706 3.54 96.4045 3.18615C96.2356 3.01083 96.1026 2.80325 96.013 2.57537C95.9234 2.3475 95.8791 2.10384 95.8826 1.85846ZM92.1746 17.0469H96.7184V7.70077H92.6451V5.78846H98.7547V17.0469H102.984V18.9592H92.1746V17.0469ZM108.6 18.9592H106.564V5.78846H108.6V8.01923H108.913C109.714 6.28462 111.107 5.41692 113.091 5.41692C114.589 5.41692 115.781 5.89462 116.669 6.85077C117.556 7.78923 118 9.20461 118 11.0992V18.9592H115.964V11.5231C115.964 10.1423 115.659 9.10769 115.049 8.41692C114.44 7.72615 113.614 7.38077 112.569 7.38077C111.333 7.38077 110.358 7.81461 109.645 8.68231C108.948 9.53154 108.6 10.6738 108.6 12.1077V18.9592ZM6.15415 2.35231V0.543077L0 4.36615V7.90154L6.15415 4.07692V2.35231ZM0 9.72846V19.0177H6.15415V5.73308L0 9.72846Z" fill="black"/>
<path id="Vector_2" d="M12.1668 2.30176L6.15332 5.73253L10.3166 9.72868V19.0179H16.47V5.7333L12.166 2.30253L12.1668 2.30176Z" fill="black"/>
</g>
<defs>
<clipPath id="clip0_614_36124">
<rect width="118" height="20" fill="white"/>
</clipPath>
</defs>
</svg>
